<svg xmlns="http://www.w3.org/2000/svg" width="20" height="24" viewBox="0 0 20 24">
  <path id="Notification2" d="M5.1,22.9c-1.092,0-1.066-1.87,0-1.87H6.866V11.994a6.769,6.769,0,0,1,1.648-4.5,7.446,7.446,0,0,1,4.224-2.508V4.108A1.472,1.472,0,0,1,13.211,3a1.71,1.71,0,0,1,2.315,0A1.472,1.472,0,0,1,16,4.108v.873A7.452,7.452,0,0,1,20.225,7.49a6.773,6.773,0,0,1,1.647,4.5v9.039s.278.011,1.491.011,1.16,1.859.276,1.859Zm9.27,3.647a2.32,2.32,0,0,1-1.664-.655,2.117,2.117,0,0,1-.685-1.59h4.7a2.117,2.117,0,0,1-.685,1.59A2.32,2.32,0,0,1,14.369,26.55Z" transform="translate(-4.29 -2.55)" fill="#161616"/>
</svg>
