<svg xmlns="http://www.w3.org/2000/svg" width="24" height="15.428" viewBox="0 0 24 15.428">
  <path id="Menu1" d="M4.279,21.8A1,1,0,0,1,3.25,20.775a1.014,1.014,0,0,1,.292-.72.968.968,0,0,1,.736-.309H26.221a.973.973,0,0,1,.738.309,1.017,1.017,0,0,1,.291.72A.995.995,0,0,1,26.221,21.8Zm0-6.686a1.029,1.029,0,1,1,0-2.057H26.221a1.029,1.029,0,1,1,0,2.057Zm0-6.686a.968.968,0,0,1-.736-.309A1.014,1.014,0,0,1,3.25,7.4,1,1,0,0,1,4.279,6.375H26.221A1,1,0,0,1,27.25,7.4a1.017,1.017,0,0,1-.291.72.973.973,0,0,1-.738.309Z" transform="translate(-3.25 -6.375)" fill="#161616"/>
</svg>
