<svg xmlns="http://www.w3.org/2000/svg" width="24" height="18.947" viewBox="0 0 24 18.947">
  <path id="Ticket1" d="M11.437,18.395,14.5,16.058l3,2.305-1.137-3.726,3.126-2.432H15.732L14.5,8.447l-1.232,3.758H9.511l3.063,2.432ZM4.395,23.447A1.889,1.889,0,0,1,2.5,21.553V17.005a2.985,2.985,0,0,0,1.8-1.042,3.088,3.088,0,0,0,0-3.979,2.985,2.985,0,0,0-1.8-1.042V6.395A1.889,1.889,0,0,1,4.395,4.5H24.605A1.889,1.889,0,0,1,26.5,6.395v4.547a3.084,3.084,0,0,0-1.8,5.021,2.985,2.985,0,0,0,1.8,1.042v4.547a1.889,1.889,0,0,1-1.895,1.895Zm0-1.895H24.605V18.332a5.175,5.175,0,0,1-1.847-1.847,4.979,4.979,0,0,1,0-5.022,5.175,5.175,0,0,1,1.847-1.847V6.395H4.395V9.616a5.185,5.185,0,0,1,1.848,1.847,4.987,4.987,0,0,1,0,5.022,5.185,5.185,0,0,1-1.848,1.847ZM14.5,13.974Z" transform="translate(-2.5 -4.5)" fill="#161616"/>
</svg>
