<svg xmlns="http://www.w3.org/2000/svg" width="24" height="26.4" viewBox="0 0 24 26.4">
  <g id="Home1" transform="translate(-4.5 -4)" fill="none">
    <path d="M4.5,30.4V13.6a2.392,2.392,0,0,1,.259-1.08,2.284,2.284,0,0,1,.7-.84l9.6-7.24a2.049,2.049,0,0,1,.68-.341,2.961,2.961,0,0,1,1.52,0,2.049,2.049,0,0,1,.68.341l9.6,7.24a2.27,2.27,0,0,1,.7.84A2.38,2.38,0,0,1,28.5,13.6V30.4H19.54V19.68H13.46V30.4Z" stroke="none"/>
    <path d="M 26.5 28.39999771118164 L 26.5 13.59999656677246 C 26.5 13.5571870803833 26.49423027038574 13.50192737579346 26.44923973083496 13.41221714019775 C 26.40818977355957 13.32985687255859 26.37698936462402 13.30716705322266 26.36366081237793 13.29746723175049 L 26.33575057983398 13.2767972946167 L 16.73894309997559 6.039204597473145 C 16.72747039794922 6.030666351318359 16.71987152099609 6.026087760925293 16.71615028381348 6.024016857147217 C 16.65314483642578 6.008075714111328 16.58050727844238 5.999997138977051 16.5 5.999997138977051 C 16.41949272155762 5.999997138977051 16.34685516357422 6.008075714111328 16.28384971618652 6.024016857147217 C 16.28012847900391 6.026087760925293 16.27252960205078 6.030666351318359 16.26105690002441 6.039204597473145 L 6.636340141296387 13.29746723175049 C 6.622379779815674 13.3076171875 6.589700222015381 13.33138656616211 6.549160003662109 13.41221714019775 C 6.505839824676514 13.49911689758301 6.5 13.55590724945068 6.5 13.59999656677246 L 6.5 28.39999771118164 L 11.46000003814697 28.39999771118164 L 11.46000003814697 17.67999649047852 L 21.54000091552734 17.67999649047852 L 21.54000091552734 28.39999771118164 L 26.5 28.39999771118164 M 28.5 30.39999771118164 L 19.54000091552734 30.39999771118164 L 19.54000091552734 19.67999649047852 L 13.46000003814697 19.67999649047852 L 13.46000003814697 30.39999771118164 L 4.5 30.39999771118164 C 4.5 30.39999771118164 4.5 28.66666603088379 4.5 13.59999656677246 C 4.5 13.2266674041748 4.586400032043457 12.86666679382324 4.759200096130371 12.51999664306641 C 4.933070182800293 12.17333698272705 5.166669845581055 11.89332675933838 5.460000038146973 11.67999649047852 L 15.0600004196167 4.439996719360352 C 15.27332973480225 4.279996871948242 15.5 4.166397094726562 15.73999977111816 4.099196910858154 C 15.97999954223633 4.033066749572754 16.23332977294922 3.999996900558472 16.5 3.999996900558472 C 16.76667022705078 3.999996900558472 17.02000045776367 4.033066749572754 17.26000022888184 4.099196910858154 C 17.5 4.166397094726562 17.72666931152344 4.279996871948242 17.94000053405762 4.439996719360352 L 27.54000091552734 11.67999649047852 C 27.83333015441895 11.89332675933838 28.0664005279541 12.17332649230957 28.23920059204102 12.51999664306641 C 28.41307067871094 12.86666679382324 28.5 13.2266674041748 28.5 13.59999656677246 C 28.5 28.66666603088379 28.5 30.39999771118164 28.5 30.39999771118164 Z" stroke="none" fill="#161616"/>
  </g>
</svg>
