<svg xmlns="http://www.w3.org/2000/svg" width="24" height="18.947" viewBox="0 0 24 18.947">
  <g id="Ticket2" transform="translate(2424 2301)">
    <path id="local_activity_FILL0_wght300_GRAD0_opsz24" d="M4.395,23.447A1.889,1.889,0,0,1,2.5,21.553V17.005a2.985,2.985,0,0,0,1.8-1.042,3.088,3.088,0,0,0,0-3.979,2.985,2.985,0,0,0-1.8-1.042V6.395A1.889,1.889,0,0,1,4.395,4.5H24.605A1.889,1.889,0,0,1,26.5,6.395v4.547a3.084,3.084,0,0,0-1.8,5.021,2.985,2.985,0,0,0,1.8,1.042v4.547a1.889,1.889,0,0,1-1.895,1.895Z" transform="translate(-2426.5 -2305.5)" fill="#161616"/>
    <path id="local_activity_FILL0_wght300_GRAD0_opsz24-2" data-name="local_activity_FILL0_wght300_GRAD0_opsz24" d="M11.437,18.395,14.5,16.058l3,2.305-1.137-3.726,3.126-2.432H15.732L14.5,8.447l-1.232,3.758H9.511l3.063,2.432Z" transform="translate(-2426.5 -2305.5)" fill="#fff"/>
  </g>
</svg>
