<?xml version="1.0" encoding="UTF-8"?><svg id="Layer_2" xmlns="http://www.w3.org/2000/svg" viewBox="0 0 524.43 498.95"><defs><style>.cls-1{fill:#febe08;}</style></defs><g id="Objects"><g><path class="cls-1" d="m524.43,283.45v-27.82c-19.69,0-35.67-17.46-35.67-38.87l-437.92-.29c0,4.12-1.66,7.84-4.41,10.53-2.69,2.75-6.41,4.41-10.53,4.41-.92,0-1.83-.11-2.69-.29-5.32,14.2-18.15,24.22-33.09,24.16v27.88c5.73,0,10.36,5.04,10.36,11.28-.06,6.24-4.7,11.28-10.42,11.28v8.7c5.73,0,10.36,5.04,10.36,11.22s-4.64,11.28-10.36,11.28v8.7c5.73,0,10.36,5.09,10.36,11.28s-4.64,11.28-10.42,11.28v8.7c5.78,0,10.42,5.04,10.42,11.28s-4.69,11.28-10.42,11.28v8.65c5.73,0,10.36,5.04,10.36,11.28s-4.64,11.28-10.36,11.28v29.08c19.75.06,35.72,17.4,35.67,38.93l452.92.29c0-21.53,16.03-38.87,35.73-38.87l.06-29.14c-5.73,0-10.36-5.04-10.36-11.28s4.64-11.22,10.36-11.22v-8.7c-5.73,0-10.36-5.1-10.36-11.28s4.69-11.28,10.36-11.28l.06-8.7c-5.73,0-10.36-5.04-10.36-11.28s4.64-11.22,10.36-11.22v-8.7c-5.73,0-10.36-5.1-10.36-11.28s4.64-11.28,10.36-11.28v-8.7c-5.73,0-10.36-5.04-10.36-11.28s4.64-11.28,10.36-11.28Zm-402.02,19.07h-54.1l19.47-54.1h54.1l-19.47,54.1Zm70.13-54.1h54.1l-19.47,54.1h-54.1l19.47-54.1Zm113.82,163.11l-74.71,43.11c-2.69,1.6-5.67,2.4-8.65,2.4s-5.95-.8-8.7-2.4c-5.44-3.09-8.7-8.76-8.7-15.06v-86.22c0-6.3,3.26-11.97,8.7-15.06,5.44-3.21,11.91-3.21,17.35-.06l74.71,43.17c5.5,3.15,8.76,8.76,8.76,15.06s-3.26,11.91-8.76,15.06Zm25.59-109.01h-54.1l19.47-54.1h54.1l-19.47,54.1Zm104.77,0h-54.16l19.47-54.1h54.16l-19.47,54.1Z"/><path class="cls-1" d="m444.62,0L10.65,135.69l20.78,66.53c1.43-.4,2.92-.63,4.47-.63,6.64,0,12.31,4.41,14.25,10.42L469.86,80.78,444.62,0ZM82.16,186.93l-34.92-45.69,51.58-16.37,34.92,45.69-51.58,16.37Zm99.85-31.78l-34.92-45.63,51.53-16.43,34.98,45.69-51.58,16.37Zm99.85-31.72l-34.92-45.69,51.53-16.43,34.98,45.69-51.58,16.43Zm99.85-31.78l-34.92-45.69,51.53-16.37,34.92,45.63-51.53,16.43Z"/><circle class="cls-1" cx="35.9" cy="216.48" r="11.27"/></g></g></svg>