<svg xmlns="http://www.w3.org/2000/svg" width="24" height="18.947" viewBox="0 0 24 18.947">
  <path id="Reels1" d="M11.342,12.868,10.3,15.142,8.026,16.184,10.3,17.226,11.342,19.5l1.042-2.274,2.274-1.042-2.274-1.042Zm7.579-.253-.758,1.547-1.547.758,1.547.758.758,1.547.758-1.547,1.547-.758-1.547-.758ZM4.774,4.5,6.984,8.921h3.789L8.563,4.5h2.526L13.3,8.921h3.789L14.879,4.5h2.526l2.211,4.421h3.789L21.195,4.5h3.032A2.264,2.264,0,0,1,26.5,6.774v14.4a2.264,2.264,0,0,1-2.274,2.274H4.774A2.264,2.264,0,0,1,2.5,21.174V6.774A2.264,2.264,0,0,1,4.774,4.5Zm-.379,6.316V21.174a.377.377,0,0,0,.379.379H24.226a.375.375,0,0,0,.379-.379V10.816Zm0,0v0Z" transform="translate(-2.5 -4.5)" fill="#161616"/>
</svg>
